<?xml version="1.0" encoding="iso-8859-1"?>
<!-- Generator: Adobe Illustrator 25.1.0, SVG Export Plug-In . SVG Version: 6.00 Build 0)  -->
<svg version="1.1" id="Layer_1" xmlns="http://www.w3.org/2000/svg" xmlns:xlink="http://www.w3.org/1999/xlink" x="0px" y="0px"
	 viewBox="0 0 425.2 425.2" style="enable-background:new 0 0 425.2 425.2;" xml:space="preserve">
<g>
	<g>
		<g>
			<g>
				<g>
					<polygon style="fill:#5DB149;" points="330.414,229.656 379.21,184.293 330.414,138.936 330.414,74.782 261.396,74.782 
						212.601,29.429 163.803,74.782 94.784,74.782 94.784,138.936 45.989,184.293 94.784,229.656 94.784,293.8 163.803,293.8 
						212.601,339.161 261.396,293.8 330.414,293.8 					"/>
				</g>
				<path style="fill:#FFFFFF;stroke:#FFFFFF;stroke-width:3;" d="M325.521,140.82V79.331h-66.144l-46.777-43.474l-46.757,43.474
					H99.681v61.489l-46.764,43.468l46.764,43.483v61.488h66.163l46.757,43.473l46.777-43.473h66.144v-61.488l46.766-43.483
					L325.521,140.82z M324.706,227.454v61.039h-65.667l-46.438,43.167l-46.431-43.167h-65.675v-61.039l-46.425-43.165l46.425-43.156
					V80.095h65.675l46.431-43.164l46.438,43.164h65.667v61.038l46.426,43.156L324.706,227.454z"/>
			</g>
			<path style="fill:#F5EB6E;" d="M322.176,184.294c0,44.515-49.062,80.602-109.578,80.602c-60.523,0-109.579-36.087-109.579-80.602
				c0-44.514,49.056-80.601,109.579-80.601C273.114,103.693,322.176,139.781,322.176,184.294z"/>
		</g>
		<g>
			<path style="fill:#5DB149;" d="M275.399,190.161c0,0,5.346,0.326,11.444,0.533c9.168,0.309,20.025,0.35,16.883-1.397
				c-15.521-8.629-52.733-51.453-62.084-43.961c-17.872,14.335-57.709,43.079-57.709,43.079s36.46-19.827,54.011-27.019
				C247.463,157.5,275.399,190.161,275.399,190.161z"/>
			<polygon style="fill:#332B2B;" points="276.756,194.128 276.756,213.247 200.983,213.247 200.983,194.128 198.287,194.128 
				198.287,215.558 280.513,215.558 280.513,194.128 			"/>
			<path style="fill:#332B2B;" d="M212.391,198.733c0,0,5.345,0.324,11.444,0.533c9.17,0.312,20.024,0.353,16.874-1.395
				c-15.523-8.629-52.724-51.456-62.079-43.959c-17.865,14.331-57.714,43.076-57.714,43.076s36.472-19.829,54.021-27.02
				C184.444,166.069,212.391,198.733,212.391,198.733z"/>
			<polygon style="fill:#332B2B;" points="213.744,202.7 213.744,221.818 137.964,221.818 137.964,202.7 135.275,202.7 
				135.275,224.13 217.503,224.13 217.503,202.7 			"/>
		</g>
	</g>
	<g>
		<path style="fill:#221E20;" d="M83.874,393.956v-0.04c0-0.628,0.488-1.151,1.115-1.202c1.643-0.136,2.582-0.26,2.82-0.37
			c0.21-0.095,0.364-0.219,0.46-0.371c0.191-0.266,0.344-0.838,0.459-1.714c0.21-1.504,0.325-4.284,0.345-8.341l0.029-10.768
			c0-3.427-0.053-6.293-0.158-8.597c-0.105-2.304-0.254-3.647-0.445-4.027c-0.115-0.247-0.307-0.439-0.575-0.572
			c-0.33-0.156-1.298-0.28-2.905-0.373c-0.64-0.037-1.145-0.564-1.145-1.204l0,0c0-0.683,0.573-1.228,1.256-1.204
			c2.939,0.102,5.591,0.154,7.956,0.154c2.77,0,5.414-0.049,7.932-0.147c0.685-0.027,1.252,0.518,1.252,1.204v0.028
			c0,0.626-0.486,1.146-1.109,1.202c-1.735,0.154-2.759,0.334-3.071,0.541c-0.374,0.247-0.598,0.848-0.675,1.8
			c-0.096,1.199-0.154,5.998-0.172,14.395h0.4c1.921-1.542,4.689-4.128,8.304-7.755c3.458-3.471,6.168-6.389,8.129-8.753
			c0.173-0.208,0.265-0.464,0.272-0.734l0.017-0.615v-0.048l-0.028-1.032l0.256-0.286c2.074,0.133,3.842,0.2,5.307,0.2
			c1.193,0,2.5-0.04,3.921-0.12c0.69-0.039,1.271,0.513,1.271,1.204v0.03c0,0.617-0.466,1.135-1.079,1.2l-0.547,0.058
			c-1.294,0.133-2.131,0.276-2.511,0.429c-0.761,0.344-1.779,1.051-3.053,2.119c-1.902,1.585-4.308,3.755-7.218,6.512l-4.262,4.022
			c-0.46,0.434-0.507,1.148-0.108,1.639l1.918,2.358c3.101,3.809,6.802,8.133,11.102,12.97c2.471,2.78,3.954,4.313,4.448,4.599
			c0.25,0.139,0.799,0.257,1.647,0.356c0.605,0.07,1.062,0.588,1.062,1.197v0.051c0,0.684-0.568,1.231-1.252,1.205l-0.26-0.01
			L119.899,395c-1.235,0-2.795,0.054-4.679,0.162c-0.389,0.022-0.769-0.142-1.01-0.448c-1.574-1.997-4.054-5.005-7.438-9.026
			c-2.739-3.275-5.355-6.246-7.848-8.912c-0.318-0.343-0.543-0.543-0.673-0.6c-0.113-0.037-0.225-0.057-0.337-0.057
			c-0.281,0-0.477,0.114-0.589,0.343c-0.056,0.153-0.084,0.914-0.084,2.285l0.114,8.655c0.038,2.533,0.143,3.99,0.314,4.37
			c0.114,0.267,0.304,0.457,0.571,0.572c0.313,0.141,1.28,0.269,2.899,0.384c0.633,0.045,1.129,0.569,1.129,1.203v0.01
			c0,0.686-0.569,1.232-1.255,1.205c-2.496-0.098-5.215-0.146-8.158-0.146c-1.566,0-4.144,0.053-7.736,0.162
			C84.44,395.182,83.874,394.636,83.874,393.956z"/>
		<path style="fill:#221E20;" d="M151.37,395.771c-7.027,0-12.407-1.805-16.138-5.414c-3.732-3.608-5.599-8.574-5.599-14.895
			c0-4.418,0.904-8.174,2.714-11.269c1.809-3.094,4.317-5.47,7.526-7.127c3.209-1.656,7.336-2.485,12.382-2.485
			c4.856,0,8.826,0.795,11.911,2.385c3.085,1.59,5.461,3.799,7.127,6.627c1.666,2.828,2.499,6.298,2.499,10.412
			c0,4.456-0.914,8.307-2.742,11.554c-1.828,3.246-4.404,5.76-7.726,7.541C160,394.881,156.016,395.771,151.37,395.771z
			 M152.455,392.686c3.828,0,6.879-1.414,9.155-4.245c2.275-2.83,3.413-7.133,3.413-12.906c0-6.061-1.304-10.711-3.913-13.951
			c-2.114-2.611-5.37-3.917-9.769-3.917c-4.113,0-7.298,1.363-9.555,4.088c-2.257,2.725-3.385,6.918-3.385,12.578
			c0,4.078,0.618,7.533,1.856,10.363c1.238,2.83,2.814,4.869,4.727,6.117C146.9,392.062,149.389,392.686,152.455,392.686z"/>
		<path style="fill:#221E20;" d="M177.905,394.256v-0.619c0-0.471,0.365-0.861,0.835-0.893l0.869-0.058
			c1.381-0.075,2.248-0.314,2.598-0.714c0.35-0.4,0.553-1.751,0.611-4.056c0.133-4.699,0.2-9.789,0.2-15.268
			c0-2.91-0.014-6.221-0.043-9.931c-0.029-2.245-0.157-3.615-0.385-4.109c-0.114-0.247-0.324-0.447-0.629-0.6
			c-0.268-0.133-1.343-0.274-3.228-0.423c-0.465-0.037-0.828-0.426-0.828-0.892v-0.655c0-0.502,0.416-0.903,0.917-0.893
			c1.983,0.043,3.931,0.064,5.843,0.064c2.354,0,4.628-0.024,6.822-0.072c0.361-0.008,0.686,0.204,0.828,0.536
			c0.956,2.23,1.944,4.444,2.965,6.643c0.747,1.619,3.939,8.254,9.577,19.905c0.324,0.67,1.28,0.674,1.611,0.007
			c5.863-11.808,10.051-20.659,12.565-26.551c0.144-0.337,0.482-0.543,0.848-0.529c2.055,0.079,4.017,0.118,5.884,0.118
			c2.083,0,4.101-0.035,6.056-0.106c0.507-0.018,0.924,0.385,0.924,0.892v0.635c0,0.467-0.363,0.857-0.828,0.892
			c-1.979,0.148-3.112,0.349-3.398,0.601c-0.325,0.286-0.534,1.161-0.629,2.628c-0.134,2.397-0.199,6.953-0.199,13.669
			c0,3.386,0.031,6.963,0.098,10.73c0.067,3.767,0.195,5.898,0.386,6.392c0.132,0.286,0.323,0.505,0.572,0.657
			c0.217,0.135,1.28,0.291,3.183,0.469c0.459,0.043,0.815,0.43,0.815,0.891v0.65c0,0.509-0.43,0.913-0.938,0.893
			c-2.708-0.108-5.146-0.161-7.316-0.161c-2.255,0-5.259,0.056-9.011,0.171c-0.505,0.015-0.93-0.389-0.93-0.894v-0.612
			c0-0.482,0.382-0.878,0.865-0.895l0.821-0.028c1.332-0.057,2.166-0.242,2.499-0.557c0.333-0.314,0.546-1.142,0.643-2.485
			c0.095-1.342,0.142-4.506,0.142-9.491v-13.415c0-0.947-1.276-1.252-1.695-0.403c-2.64,5.354-5.822,11.929-9.544,19.723
			c-1.736,3.646-3.119,6.667-4.147,9.063c-0.141,0.329-0.461,0.537-0.819,0.537h-0.704c-0.355,0-0.673-0.203-0.816-0.528
			c-1.403-3.189-3.241-7.156-5.516-11.9l-8.194-16.823c-0.416-0.854-1.7-0.558-1.7,0.392l0,0c0,10.731,0.047,18.122,0.143,22.175
			c0.057,1.638,0.275,2.647,0.657,3.028c0.335,0.336,1.475,0.567,3.42,0.696c0.468,0.031,0.836,0.423,0.836,0.892v0.607
			c0,0.514-0.433,0.917-0.946,0.888c-1.623-0.094-3.246-0.14-4.869-0.14c-2.496,0-4.758,0.049-6.786,0.149
			C178.332,395.174,177.905,394.769,177.905,394.256z"/>
		<path style="fill:#221E20;" d="M236.633,394.286v-0.642c0-0.471,0.371-0.862,0.841-0.893c2.09-0.135,3.286-0.338,3.589-0.608
			c0.341-0.305,0.549-1.057,0.625-2.257c0.153-2.513,0.229-7.198,0.229-14.053c0-2.628-0.038-6.436-0.114-11.425
			c-0.038-3.409-0.114-5.28-0.229-5.613c-0.113-0.333-0.313-0.576-0.599-0.728c-0.369-0.185-1.539-0.347-3.508-0.488
			c-0.467-0.033-0.833-0.424-0.833-0.892v-0.637c0-0.506,0.423-0.911,0.929-0.894c3.47,0.113,6.16,0.169,8.068,0.169
			c3.203,0,6.132-0.054,8.787-0.16c0.508-0.02,0.925,0.384,0.925,0.893v0.627c0,0.47-0.368,0.86-0.837,0.892
			c-2.085,0.146-3.276,0.332-3.573,0.56c-0.336,0.257-0.551,0.853-0.647,1.786c-0.153,1.827-0.229,5.532-0.229,11.11
			c0,7.427,0.029,12.602,0.086,15.525c0.057,2.923,0.229,4.661,0.515,5.213c0.114,0.247,0.357,0.443,0.728,0.585
			c0.323,0.124,1.364,0.253,3.123,0.384c0.467,0.035,0.833,0.424,0.833,0.892v0.648c0,0.503-0.415,0.908-0.918,0.895l-2.453-0.062
			c-2.133-0.077-4.038-0.114-5.713-0.114l-8.712,0.181C237.045,395.191,236.633,394.788,236.633,394.286z"/>
		<path style="fill:#221E20;" d="M261.397,394.271v-0.042c0-0.319,0.173-0.614,0.448-0.775c0.843-0.493,1.505-0.895,1.987-1.208
			c0.233-0.151,0.378-0.394,0.397-0.67c0.245-3.441,0.367-9.569,0.367-18.382c0-3.976-0.042-7.301-0.128-9.975
			c-0.086-2.673-0.214-4.2-0.385-4.58c-0.077-0.19-0.2-0.333-0.372-0.429c-0.254-0.135-1.392-0.331-3.412-0.588
			c-0.447-0.057-0.787-0.438-0.787-0.888v-0.686c0-0.505,0.412-0.909,0.917-0.894c2.654,0.077,5.652,0.115,8.994,0.115l14.082-0.143
			c5.122,0,9.012,0.647,11.668,1.942c2.656,1.296,4.765,3.276,6.327,5.942c1.561,2.666,2.342,5.903,2.342,9.711
			c0,4.894-1.219,9.112-3.657,12.654c-2.437,3.542-5.408,6.065-8.912,7.569c-3.504,1.505-7.246,2.257-11.226,2.257l-10.826-0.2
			c-1.574,0-3.872,0.054-6.893,0.165C261.823,395.183,261.397,394.778,261.397,394.271z M272.929,390.936
			c0.019,0.423,0.331,0.776,0.749,0.839c1.372,0.207,2.772,0.311,4.2,0.311c4.246,0,7.484-0.609,9.711-1.826
			c2.228-1.217,4.032-3.211,5.413-5.98c1.381-2.768,2.072-6.169,2.072-10.203c0-5.308-1.371-9.351-4.114-12.13
			c-2.419-2.473-6.37-3.71-11.854-3.71c-1.065,0-2.835,0.078-5.311,0.233c-0.467,0.029-0.835,0.414-0.841,0.882l-0.218,16.964
			C272.737,383.192,272.801,388.066,272.929,390.936z"/>
		<path style="fill:#221E20;" d="M307.871,393.438c0-0.465,0.364-0.854,0.828-0.891c1.307-0.103,2.135-0.266,2.486-0.489
			c0.286-0.19,0.732-0.915,1.342-2.171c1.161-2.475,2.646-5.912,4.456-10.311l9.884-24.208c0.138-0.337,0.465-0.557,0.829-0.557l0,0
			c2.18,0,4.148,1.307,4.994,3.316l11.514,27.361c1.676,3.871,2.709,5.991,3.1,6.362c0.335,0.318,1.268,0.547,2.799,0.688
			c0.459,0.042,0.814,0.429,0.814,0.89v0.841c0,0.508-0.428,0.912-0.935,0.892c-2.758-0.108-5.377-0.161-7.859-0.161
			c-2.954,0-5.777,0.053-8.471,0.161c-0.508,0.02-0.922-0.383-0.922-0.891v-0.814c0-0.476,0.379-0.869,0.855-0.893
			c1.743-0.089,2.766-0.201,3.072-0.338c0.352-0.158,0.528-0.442,0.528-0.851c0-0.354-0.4-1.563-1.2-3.627l-1.666-4.218
			c-0.132-0.335-0.447-0.559-0.807-0.567c-2.212-0.048-4.656-0.072-7.333-0.072c-2.299,0-4.41,0.024-6.333,0.07
			c-0.36,0.009-0.673,0.234-0.805,0.569l-1.039,2.654c-0.343,0.875-0.761,2.177-1.256,3.907c-0.114,0.39-0.171,0.744-0.171,1.059
			c0,0.429,0.185,0.73,0.557,0.908c0.324,0.154,1.389,0.312,3.192,0.474c0.461,0.041,0.819,0.429,0.819,0.891v0.825
			c0,0.512-0.426,0.922-0.937,0.893c-1.688-0.094-3.697-0.14-6.027-0.14c-2.144,0-3.931,0.043-5.362,0.131
			c-0.515,0.032-0.944-0.377-0.944-0.893V393.438z M325.789,366.888l-4.725,11.512c-0.237,0.576,0.17,1.21,0.793,1.235
			c1.403,0.056,2.913,0.083,4.526,0.083c1.748,0,3.435-0.03,5.063-0.089c0.622-0.023,1.027-0.664,0.787-1.239l-4.791-11.506
			C327.136,366.147,326.092,366.15,325.789,366.888z"/>
	</g>
</g>
</svg>
